<?xml version="1.0" encoding="UTF-8"?>
<svg version="1.1" xmlns="http://www.w3.org/2000/svg" width="407" height="392">
<path d="M0 0 C4.581128 4.06911958 7.57341917 10.30093482 8.2734375 16.37109375 C7.8302498 22.9139438 5.07565649 26.84868703 2 33 C13.55 33 25.1 33 37 33 C36.01 29.37 35.02 25.74 34 22 C34 17.38796426 34.42208621 15.71848741 37.3125 12.125 C39.83788121 10.12818695 40.97931505 9.60542513 44 9 C47.35573581 28.38536666 47.35573581 28.38536666 44.25 34.375 C41.2152257 37.91557001 39.55781426 39.83461561 34.79199219 40.34057617 C33.55610352 40.32486572 32.32021484 40.30915527 31.046875 40.29296875 C30.05654266 40.28660149 30.05654266 40.28660149 29.04620361 40.28010559 C26.94704609 40.26337435 24.84886504 40.22573551 22.75 40.1875 C21.32293058 40.17244584 19.89584604 40.15875871 18.46875 40.14648438 C14.97885183 40.11349001 11.4895213 40.06174743 8 40 C8 40.99 8 41.98 8 43 C7.34 43 6.68 43 6 43 C6 44.65 6 46.3 6 48 C8.31 48 10.62 48 13 48 C13 49.32 13 50.64 13 52 C9.535 52.495 9.535 52.495 6 53 C5.67 68.84 5.34 84.68 5 101 C17.77337646 96.76074977 17.77337646 96.76074977 27 88 C27.4167552 84.95788569 27.4167552 84.95788569 27 82 C23.46464078 79.64309385 22.09285921 79.83843075 17.9375 80 C14.71484375 80.125 14.71484375 80.125 12 80 C10 78 10 78 9.625 75.5625 C10 73 10 73 11.4375 71.1875 C15.37594615 69.36236642 18.74511777 69.15852409 23 70 C27.3946654 72.07621987 30.88024756 74.7105881 34.0625 78.375 C35.74620456 83.08937276 36.00259892 86.75934333 33.96875 91.3046875 C30.39820233 97.19609116 25.93911338 100.63450242 20 104 C21.2065625 105.175625 21.2065625 105.175625 22.4375 106.375 C25.44219617 109.45298144 25.92940903 110.06466966 26.25 114.3125 C25.86213217 120.03355051 23.61121135 122.58930734 19.4375 126.25 C17.6365641 127.75271641 16.09966682 128.95016659 14 130 C14.5775 130.4125 15.155 130.825 15.75 131.25 C21.57685564 135.78199883 21.57685564 135.78199883 22.70703125 139.03515625 C22.90392835 142.81995608 22.10140846 145.35980328 19.8125 148.375 C15.49848761 152.40141157 11.75452912 153.19704245 6 154 C5.505 156.97 5.505 156.97 5 160 C11.6 160 18.2 160 25 160 C25.33 157.36 25.66 154.72 26 152 C27.48426168 149.494953 28.77117041 147.60030119 30.625 145.4375 C31.03878906 144.89287109 31.45257813 144.34824219 31.87890625 143.78710938 C33.1640625 142.24609375 33.1640625 142.24609375 36 140 C40.85364251 140.08200452 43.27880929 141.04871081 47 144 C50.86412696 144.46187123 50.86412696 144.46187123 52.4921875 142.56640625 C52.94851562 141.90511719 53.40484375 141.24382812 53.875 140.5625 C54.37902344 139.83417969 54.88304687 139.10585937 55.40234375 138.35546875 C55.92957031 137.57816406 56.45679688 136.80085937 57 136 C57.57878906 135.23300781 58.15757812 134.46601563 58.75390625 133.67578125 C62.24213232 129.04872814 62.24213232 129.04872814 62.875 123.4375 C62.441875 122.2309375 62.441875 122.2309375 62 121 C61.01 121.66 60.02 122.32 59 123 C57.2365625 123.495 57.2365625 123.495 55.4375 124 C51.96926675 124.70977006 51.96926675 124.70977006 50 127 C46.07969983 126.68213782 43.06871976 125.45497581 40 123 C39.53515625 120.6484375 39.53515625 120.6484375 40 118 C42.265625 115.8671875 42.265625 115.8671875 45.25 113.875 C46.22453125 113.21242188 47.1990625 112.54984375 48.203125 111.8671875 C49.90381464 110.73181089 51.61491764 109.61157702 53.34375 108.51953125 C55.18509022 107.13359261 55.18509022 107.13359261 55.390625 104.95703125 C55.34421875 104.24933594 55.2978125 103.54164063 55.25 102.8125 C55.1675 101.554375 55.085 100.29625 55 99 C60.96055797 97.01314734 67.72774268 96.24630716 74 97 C74.66 97.66 75.32 98.32 76 99 C78.60280568 98.67958603 78.60280568 98.67958603 81 98 C81.2475 98.78375 81.495 99.5675 81.75 100.375 C83.15389099 103.32317108 84.00675737 103.9024777 87 105 C86 108 86 108 84 109 C86.31 109.66 88.62 110.32 91 111 C91 112.32 91 113.64 91 115 C90.01 115.66 89.02 116.32 88 117 C87.27034634 119.56282742 87.27034634 119.56282742 87 122 C88.98 122.99 90.96 123.98 93 125 C93 125.99 93 126.98 93 128 C91.68 128 90.36 128 89 128 C88.01879536 131.05263664 88.01879536 132.94736336 89 136 C87.68 135.34 86.36 134.68 85 134 C85 135.98 85 137.96 85 140 C83.35 139.34 81.7 138.68 80 138 C80.34838615 139.40271265 80.73033478 140.79709896 81.125 142.1875 C81.43824219 143.35345703 81.43824219 143.35345703 81.7578125 144.54296875 C84.9055677 150.76918895 91.04048944 153.17752667 97.1875 155.625 C104.62270368 158.61795597 104.62270368 158.61795597 106.5715332 160.59130859 C107.95672636 162.2604506 107.95672636 162.2604506 110.4375 162.1875 C113.88815214 160.5884173 114.89609201 158.73186757 116.40234375 155.3046875 C117.8979264 149.53740799 115.1475055 144.28599287 112.875 139.0625 C110.7498423 134.01426293 110.36336098 129.42708675 111 124 C111.33 123.34 111.66 122.68 112 122 C112.99 122.33 113.98 122.66 115 123 C115 124.32 115 125.64 115 127 C115.99 125.35 116.98 123.7 118 122 C120 124 120 124 120 127 C120.99 127.33 121.98 127.66 123 128 C123 130.64 123 133.28 123 136 C123.99 134.02 124.98 132.04 126 130 C126.66 130 127.32 130 128 130 C128 131.32 128 132.64 128 134 C128.66 134 129.32 134 130 134 C129.67 136.64 129.34 139.28 129 142 C129.99 142 130.98 142 132 142 C131.67 142.804375 131.34 143.60875 131 144.4375 C129.93940959 146.69681125 129.93940959 146.69681125 130 148 C130.99 148 131.98 148 133 148 C133 149.32 133 150.64 133 152 C131.46875 153.484375 131.46875 153.484375 129.5 154.75 C128.8503125 155.17796875 128.200625 155.6059375 127.53125 156.046875 C127.0259375 156.36140625 126.520625 156.6759375 126 157 C127.32 157 128.64 157 130 157 C129 160 129 160 126.9375 161.1875 C125.9784375 161.5896875 125.9784375 161.5896875 125 162 C125 162.66 125 163.32 125 164 C125.825 164.639375 126.65 165.27875 127.5 165.9375 C128.7375 166.9584375 128.7375 166.9584375 130 168 C130 168.99 130 169.98 130 171 C128.35 170.34 126.7 169.68 125 169 C125 169.99 125 170.98 125 172 C123.35 171.67 121.7 171.34 120 171 C120 172.32 120 173.64 120 175 C119.01 174.67 118.02 174.34 117 174 C116.67 173.34 116.34 172.68 116 172 C113.47266765 171.34444881 113.47266765 171.34444881 111 171 C110.78085937 171.56847656 110.56171875 172.13695312 110.3359375 172.72265625 C108.60292793 176.9424641 107.0936028 180.10447794 103.75 183.25 C101.52715765 185.62728301 101.02307273 186.66871049 100.79296875 189.97265625 C100.89069034 192.23081732 100.99637419 194.48864569 101.109375 196.74609375 C100.96436788 201.06005561 99.44372172 203.57892595 97.30859375 207.23828125 C95.08879455 211.92305149 94.45137455 216.89054693 93.578125 221.97265625 C93 225 93 225 92 226 C89 226.125 89 226.125 86 226 C85 225 85 225 84.875 221.6875 C85 218 85 218 85.48828125 216.18359375 C87.08113488 209.38660765 87.1072236 201.55228391 84 195.25 C80.60332567 188.09657986 81.51307046 179.72701304 82 172 C82.33 171.34 82.66 170.68 83 170 C81.84242188 169.67386719 80.68484375 169.34773437 79.4921875 169.01171875 C77.95303666 168.57062064 76.41397905 168.12919711 74.875 167.6875 C74.11445313 167.47416016 73.35390625 167.26082031 72.5703125 167.04101562 C66.76455515 165.36435294 61.65680526 163.77803492 57.4375 159.25 C56.2309375 158.13625 56.2309375 158.13625 55 157 C53.82630859 157.27263672 53.82630859 157.27263672 52.62890625 157.55078125 C50 158 50 158 47.71875 156.71484375 C46.23831179 155.52892934 44.75914561 154.34142526 43.28125 153.15234375 C41.00390474 151.68644112 41.00390474 151.68644112 38.34375 152.69140625 C35.65531928 154.19244673 34.25781939 155.12341409 33.375 158.125 C33.25125 158.74375 33.1275 159.3625 33 160 C34.32 160 35.64 160 37 160 C37 162.64 37 165.28 37 168 C26.44 168 15.88 168 5 168 C5 178.56 5 189.12 5 200 C3.35 200.66 1.7 201.32 0 202 C-1.98 201.01 -1.98 201.01 -4 200 C-4 189.44 -4 178.88 -4 168 C-14.56 168 -25.12 168 -36 168 C-36 165.36 -36 162.72 -36 160 C-33.36 159.67 -30.72 159.34 -28 159 C-31.29765907 156.80156062 -32.18977585 156.68722041 -36 157 C-38.46073296 157.51508555 -38.46073296 157.51508555 -40.875 158.4375 C-41.67679687 158.70433594 -42.47859375 158.97117188 -43.3046875 159.24609375 C-46.09354406 161.06087142 -47.27069194 162.56346526 -49.203125 165.2265625 C-53.03393826 170.38718699 -57.49469982 173.51928177 -62.875 176.9375 C-64.58316296 178.04704335 -66.28902313 179.16014267 -67.9921875 180.27734375 C-68.73839355 180.75421631 -69.48459961 181.23108887 -70.25341797 181.72241211 C-72.84324537 183.61681619 -72.98008344 184.87801105 -73.5 188.0625 C-72.95247209 192.37428228 -72.24410443 193.21596042 -69.5 196.375 C-66.15542246 200.34119599 -65.20343199 202.79900111 -65.62109375 207.953125 C-66 210 -66 210 -67 212.9375 C-68.42148795 217.29080683 -68.1615192 221.45951573 -68 226 C-67.01 226.33 -66.02 226.66 -65 227 C-65 227.99 -65 228.98 -65 230 C-70.52519352 230.19386644 -74.65331565 229.6461307 -80 228 C-79.98952637 227.44538086 -79.97905273 226.89076172 -79.96826172 226.31933594 C-79.92657996 223.79627041 -79.90063562 221.27327747 -79.875 218.75 C-79.85824219 217.87730469 -79.84148437 217.00460937 -79.82421875 216.10546875 C-79.81777344 215.26113281 -79.81132813 214.41679687 -79.8046875 213.546875 C-79.79421387 212.77182617 -79.78374023 211.99677734 -79.77294922 211.19824219 C-80.0280581 208.72834933 -80.81492778 207.1614345 -82 205 C-82.12761719 204.31421875 -82.25523438 203.6284375 -82.38671875 202.921875 C-83.22678718 200.28930386 -84.4743257 199.65550737 -86.8125 198.25 C-87.49957031 197.82203125 -88.18664062 197.3940625 -88.89453125 196.953125 C-91.22214193 195.72506554 -91.22214193 195.72506554 -95 196 C-96.051875 196.7425 -96.051875 196.7425 -97.125 197.5 C-101.3883433 199.72435303 -105.28586131 199.66588155 -110 199 C-115.11330488 196.63272922 -118.0167665 193.23128428 -120 188 C-122.94042721 178.3001761 -118.65898269 168.21324575 -114.83984375 159.2890625 C-113.96701012 156.91008339 -113.78968641 155.20425096 -113.875 152.6875 C-113.91625 151.470625 -113.9575 150.25375 -114 149 C-115.98 148.34 -117.96 147.68 -120 147 C-119.125 143.125 -119.125 143.125 -118 142 C-111.84110672 141.53517787 -111.84110672 141.53517787 -108.625 143.3125 C-105.44791911 146.61177631 -105.61770385 150.586478 -105.63671875 154.921875 C-106.15638728 159.32508796 -107.64964887 163.3015123 -109.13549805 167.44775391 C-111.32789731 173.66363671 -112.87395142 179.50419432 -111.25 186 C-110.00857472 188.2915406 -110.00857472 188.2915406 -107 190 C-102.84130536 189.70295038 -100.49592778 189.33061852 -97 187 C-96.34309765 184.32011209 -96.34309765 184.32011209 -96.0625 181.25 C-94.73480898 172.37765209 -90.00545692 167.84506605 -84.12109375 161.390625 C-80.15673247 156.9225051 -77.66231084 152.81808794 -76 147 C-76.66 146.67 -77.32 146.34 -78 146 C-77.85904936 144.3745692 -77.71207913 142.74965949 -77.5625 141.125 C-77.48128906 140.22007812 -77.40007812 139.31515625 -77.31640625 138.3828125 C-77 136 -77 136 -76 134 C-75.01 134 -74.02 134 -73 134 C-73 134.99 -73 135.98 -73 137 C-72.34 137 -71.68 137 -71 137 C-70.34 135.68 -69.68 134.36 -69 133 C-68.34 133 -67.68 133 -67 133 C-67 134.32 -67 135.64 -67 137 C-66.071875 136.01 -66.071875 136.01 -65.125 135 C-63 133 -63 133 -61 133 C-60.01 134.98 -60.01 134.98 -59 137 C-58.34 136.01 -57.68 135.02 -57 134 C-54 135 -54 135 -52 137 C-51.01 136.67 -50.02 136.34 -49 136 C-48.67 137.32 -48.34 138.64 -48 140 C-46.68 139.67 -45.36 139.34 -44 139 C-42 142 -42 142 -42 145 C-45.465 145.99 -45.465 145.99 -49 147 C-49.33 145.68 -49.66 144.36 -50 143 C-50.33 143.99 -50.66 144.98 -51 146 C-52.32 146 -53.64 146 -55 146 C-55.33 145.34 -55.66 144.68 -56 144 C-57.98 144.99 -57.98 144.99 -60 146 C-60.33 145.34 -60.66 144.68 -61 144 C-62.32 144.33 -63.64 144.66 -65 145 C-65.33 143.68 -65.66 142.36 -66 141 C-66.66 141.99 -67.32 142.98 -68 144 C-69.32 144 -70.64 144 -72 144 C-71.67 145.32 -71.34 146.64 -71 148 C-70.34 148 -69.68 148 -69 148 C-68.67 147.01 -68.34 146.02 -68 145 C-64.625 145.3125 -64.625 145.3125 -61 146 C-60.34 146.99 -59.68 147.98 -59 149 C-55.60829145 149 -52.86703988 148.67677675 -49.5625 148.0625 C-45.07196564 147.3085745 -40.58907003 146.62395147 -36.0625 146.125 C-35.02222656 146.00382813 -33.98195313 145.88265625 -32.91015625 145.7578125 C-29.12620038 146.07271889 -27.67876571 147.37704191 -25 150 C-24.319375 151.03125 -23.63875 152.0625 -22.9375 153.125 C-21.05158713 155.92345135 -20.10548992 156.89089646 -17 158 C-17 158.66 -17 159.32 -17 160 C-12.71 160 -8.42 160 -4 160 C-4.33 158.02 -4.66 156.04 -5 154 C-5.85271484 153.88785156 -5.85271484 153.88785156 -6.72265625 153.7734375 C-12.79294647 152.73976538 -17.07977763 150.88288053 -21 146 C-22.30536033 142.44651911 -22.38218426 140.9217385 -20.9375 137.4375 C-18.56150279 134.44834223 -16.01286941 132.34334287 -13 130 C-13.79664063 129.56300781 -13.79664063 129.56300781 -14.609375 129.1171875 C-19.31889599 126.38429028 -22.61025647 124.078205 -25 119 C-25.87917503 114.43012146 -25.36519798 111.66952963 -23.125 107.5625 C-21 105 -21 105 -19 104 C-19.66386719 103.5875 -20.32773438 103.175 -21.01171875 102.75 C-26.74989605 98.99714827 -31.50004898 95.57022304 -34 89 C-34.87384035 84.81973669 -34.33392186 81.70958395 -32.5 77.8125 C-28.85614653 73.71316485 -25.1532293 70.54883794 -19.62109375 69.5859375 C-16.11546465 69.4588801 -13.63649487 69.70503896 -10.4375 71.1875 C-9 73 -9 73 -8.625 75.5625 C-9 78 -9 78 -11 80 C-14.06799849 80.14126036 -17.0842249 79.99429502 -20.15234375 79.875 C-23.20506797 79.76283326 -23.20506797 79.76283326 -26 82 C-26.66790364 84.8715965 -26.66790364 84.8715965 -26 88 C-20.35015352 95.23886581 -12.47978782 98.33043717 -4 101 C-4.11908735 95.75288103 -4.24338302 90.50591953 -4.37231445 85.2590332 C-4.41538116 83.47749098 -4.45707346 81.69591493 -4.49731445 79.91430664 C-4.55570893 77.33990323 -4.6191963 74.76566568 -4.68359375 72.19140625 C-4.70030624 71.40665421 -4.71701874 70.62190216 -4.73423767 69.81336975 C-4.87385076 64.49273992 -5.35363441 59.28363619 -6 54 C-7.98 53.34 -9.96 52.68 -12 52 C-12 50.68 -12 49.36 -12 48 C-9.69 48 -7.38 48 -5 48 C-5 46.35 -5 44.7 -5 43 C-5.99 43 -6.98 43 -8 43 C-8 42.01 -8 41.02 -8 40 C-8.84183838 40.0314209 -9.68367676 40.0628418 -10.55102539 40.09521484 C-13.70246114 40.19804272 -16.85303671 40.27296348 -20.00561523 40.32958984 C-21.36462697 40.35959295 -22.72344781 40.40041185 -24.08178711 40.45263672 C-36.81495118 40.9296043 -36.81495118 40.9296043 -41.37109375 37.1640625 C-45.22883782 33.18836916 -45.20690727 29.19024435 -45.16796875 23.91796875 C-44.87782653 18.87759113 -43.95291072 13.95173249 -43 9 C-39.10215048 10.47137366 -36.60245479 11.6539867 -34 15 C-33 21 -33 21 -36 33 C-24.45 33 -12.9 33 -1 33 C-2.98 28.71 -4.96 24.42 -7 20 C-7 13.23369483 -6.67286745 11.5583597 -3.5 6.0625 C-2.8503125 4.91910156 -2.200625 3.77570312 -1.53125 2.59765625 C-0.77328125 1.31181641 -0.77328125 1.31181641 0 0 Z M69 101 C68.34 101.66 67.68 102.32 67 103 C68.65 102.67 70.3 102.34 72 102 C71.01 101.67 70.02 101.34 69 101 Z M74 104 C73.67 105.32 73.34 106.64 73 108 C74.32 107.34 75.64 106.68 77 106 C76.67 105.34 76.34 104.68 76 104 C75.34 104 74.68 104 74 104 Z M-19 112 C-19.64314549 116.04262882 -19.19467862 117.68973094 -17 121.1875 C-13.85223463 124.62388569 -10.41280332 125.69786132 -6 127 C-5.34 127 -4.68 127 -4 127 C-3.97111486 123.85418577 -3.95324077 120.70840531 -3.9375 117.5625 C-3.92912109 116.66466797 -3.92074219 115.76683594 -3.91210938 114.84179688 C-3.90888672 113.98779297 -3.90566406 113.13378906 -3.90234375 112.25390625 C-3.89710693 111.46314697 -3.89187012 110.6723877 -3.88647461 109.85766602 C-3.79504091 107.98407311 -3.79504091 107.98407311 -5 107 C-10.7257446 106.4673726 -14.91334214 107.91334214 -19 112 Z M5 108 C4.91348389 109.41570123 4.89295096 110.835595 4.90234375 112.25390625 C4.90556641 113.10791016 4.90878906 113.96191406 4.91210938 114.84179688 C4.92048828 115.73962891 4.92886719 116.63746094 4.9375 117.5625 C4.94201172 118.46419922 4.94652344 119.36589844 4.95117188 120.29492188 C4.96299775 122.53001314 4.9794778 124.76497437 5 127 C11.20424118 125.61701125 14.43539368 124.45327445 19 120 C20.43735246 117.12529507 20.38172649 115.18105412 20 112 C17.1353756 108.58093216 14.53193651 107.73383959 10.25 107.1875 C7.33391421 106.7027557 7.33391421 106.7027557 5 108 Z M58 111 C57.67 111.66 57.34 112.32 57 113 C58.32 113 59.64 113 61 113 C61 112.34 61 111.68 61 111 C60.01 111 59.02 111 58 111 Z M80 111 C79.67 112.65 79.34 114.3 79 116 C80.32 115.67 81.64 115.34 83 115 C82.34 115 81.68 115 81 115 C81.33 113.68 81.66 112.36 82 111 C81.34 111 80.68 111 80 111 Z M68 116 C68.33 117.32 68.66 118.64 69 120 C69.66 119.34 70.32 118.68 71 118 C70.34 118 69.68 118 69 118 C68.67 117.34 68.34 116.68 68 116 Z M63 117 C63.33 117.66 63.66 118.32 64 119 C64.33 118.34 64.66 117.68 65 117 C64.34 117 63.68 117 63 117 Z M78 118 C78.33 118.66 78.66 119.32 79 120 C79.66 119.67 80.32 119.34 81 119 C80.01 118.67 79.02 118.34 78 118 Z M68 125 C66.5393715 127.64738916 66 128.89448334 66 132 C66.66 132 67.32 132 68 132 C68.66 129.69 69.32 127.38 70 125 C69.34 125 68.68 125 68 125 Z M5 133 C5 138.28 5 143.56 5 149 C11.05095337 148.38453674 11.05095337 148.38453674 16 146 C18.2408243 143.26259624 18.2408243 143.26259624 17.9375 140.5625 C16.65803525 137.06529634 15.16797376 135.92833186 12 134 C9.69 133.67 7.38 133.34 5 133 Z M-16 137.3125 C-17.22927357 139.09578142 -17.22927357 139.09578142 -17.1875 141.9375 C-15.64366424 145.91897118 -13.85744482 146.60425624 -10.10546875 148.3359375 C-7.7321584 149.20052842 -7.7321584 149.20052842 -4 149 C-4 143.72 -4 138.44 -4 133 C-8.545548 133 -12.22861363 134.8375277 -16 137.3125 Z M64 138 C65.98 138 67.96 138 70 138 C70.33 137.34 70.66 136.68 71 136 C67.04542152 135.65176193 67.04542152 135.65176193 64 138 Z M126 136 C127 138 127 138 127 138 Z M-73 141 C-73.33 141.99 -73.66 142.98 -74 144 C-73.34 144 -72.68 144 -72 144 C-72.33 143.01 -72.66 142.02 -73 141 Z M120 143 C120.33 143.99 120.66 144.98 121 146 C121 145.01 121 144.02 121 143 C120.67 143 120.34 143 120 143 Z M29 155 C30 158 30 158 30 158 Z M119 159 C119 162 119 162 119 162 Z M103 169 C102.67 171.31 102.34 173.62 102 176 C102.66 175.67 103.32 175.34 104 175 C104 173.02 104 171.04 104 169 C103.67 169 103.34 169 103 169 Z M87 174 C85.20603053 181.38287435 84.85153168 186.74451682 87 194 C87.5478153 196.1859683 88.08929261 198.37353298 88.625 200.5625 C89.08215964 202.37529639 89.54007684 204.18790277 90 206 C90.66 206 91.32 206 92 206 C91.61258939 201.66100113 91.22614126 198.50655642 89.4375 194.5 C86.80193809 188.15418102 87.77939713 180.7324727 88 174 C87.67 174 87.34 174 87 174 Z M-77 205 C-76 207 -76 207 -76 207 Z M89 216 C90 220 90 220 90 220 Z " fill="#AC1F1D" transform="translate(202,50)"/>
<path d="M0 0 C0.73492676 0.34546875 1.46985352 0.6909375 2.22705078 1.046875 C17.50736047 8.37431494 30.77708171 18.29214796 43 30 C43.92941406 30.85464844 44.85882813 31.70929687 45.81640625 32.58984375 C72.95977865 58.07666225 90.49754306 96.36307851 92.52856445 133.43164062 C92.95338095 143.48533561 92.95338095 143.48533561 98.5 151.625 C99.98599061 152.76844082 101.48386452 153.89684172 103 155 C103.66 155.99 104.32 156.98 105 158 C109.30323394 156.31245728 112.22734355 153.14649963 115.5 150 C116.63127091 148.91233817 117.76657722 147.82885498 118.90625 146.75 C119.40447266 146.27046875 119.90269531 145.7909375 120.41601562 145.296875 C122 144 122 144 126 142 C126 146.62 126 151.24 126 156 C126.99 156 127.98 156 129 156 C131.06010506 202.08531316 109.38492476 250.34591403 78.6875 284 C77.28773524 285.50050635 75.8777882 286.99016268 74.45947266 288.47314453 C73.47491573 289.50315775 72.4955186 290.53812459 71.52099609 291.57763672 C52.43548776 311.88570431 29.41977947 325.39017524 4.27978516 336.93774414 C2.16659995 337.92237349 0.07955202 338.94649166 -2 340 C-2 340.99 -2 341.98 -2 343 C-0.50791219 344.40941278 -0.50791219 344.40941278 1.5 345.62890625 C2.221875 346.10650391 2.94375 346.58410156 3.6875 347.07617188 C4.8321875 347.8119043 4.8321875 347.8119043 6 348.5625 C7.50401118 349.53680454 9.00424436 350.51697463 10.5 351.50390625 C11.1703125 351.93517822 11.840625 352.3664502 12.53125 352.81079102 C13.0159375 353.20322998 13.500625 353.59566895 14 354 C14 354.66 14 355.32 14 356 C12.02 356.33 10.04 356.66 8 357 C8.33 358.32 8.66 359.64 9 361 C-39.85140046 383.99300536 -103.72726487 379.74310328 -153.5 363.078125 C-156 362 -156 362 -157 360 C-156.67 359.01 -156.34 358.02 -156 357 C-156.804375 356.87625 -157.60875 356.7525 -158.4375 356.625 C-159.7059375 356.315625 -159.7059375 356.315625 -161 356 C-161.33 355.34 -161.66 354.68 -162 354 C-161.27296875 353.52373169 -161.27296875 353.52373169 -160.53125 353.0378418 C-158.34694361 351.59835238 -156.17350839 350.14323662 -154 348.6875 C-152.8553125 347.93823242 -152.8553125 347.93823242 -151.6875 347.17382812 C-150.6046875 346.44389648 -150.6046875 346.44389648 -149.5 345.69921875 C-148.8296875 345.25408936 -148.159375 344.80895996 -147.46875 344.3503418 C-146.74171875 343.68192261 -146.74171875 343.68192261 -146 343 C-145.84188612 339.94729537 -145.84188612 339.94729537 -147 337 C-149.00400143 336.33199952 -151.0118455 335.674568 -153.03125 335.0546875 C-197.15074207 319.38065742 -234.93180721 279.36322149 -255.03955078 238.05322266 C-267.08126012 212.31077844 -274.08847532 184.43956992 -275 156 C-273.68 156 -272.36 156 -271 156 C-271 151.38 -271 146.76 -271 142 C-267.2478322 143.8760839 -265.55920599 145.27911309 -262.75 148.25 C-258.78684758 152.31831069 -254.65871284 155.76301969 -250 159 C-249.7628125 158.41089844 -249.525625 157.82179687 -249.28125 157.21484375 C-247.73758877 154.5463806 -245.95320112 153.41434825 -243.5 151.5625 C-237.32354926 145.55351284 -237.81995543 138.73339719 -237.37109375 130.6171875 C-235.88648283 103.78319194 -225.04097218 75.43793478 -209 54 C-208.23816406 52.94425781 -207.47632813 51.88851562 -206.69140625 50.80078125 C-191.25842706 29.92635945 -171.96852327 13.85047626 -149 2 C-148.38157227 1.68047363 -147.76314453 1.36094727 -147.12597656 1.03173828 C-101.24207347 -22.30050697 -46.28703551 -21.75894707 0 0 Z M-187.64453125 36.64453125 C-188.95073112 37.95073112 -190.26921358 39.24602772 -191.6328125 40.4921875 C-218.34229254 65.24390461 -232.22732445 105.84586692 -233.92529297 141.42602539 C-235.23079909 186.22289241 -218.19836881 226.73321456 -187.77734375 259.12109375 C-159.66793973 288.53069112 -118.68904068 305.8709173 -78.203125 307.203125 C-33.14194924 307.91385482 8.19698871 291.80189356 41 261 C65.23554367 237.41532036 81.71670108 205.37220472 87 172 C87.27650391 170.2984375 87.27650391 170.2984375 87.55859375 168.5625 C89.68233093 150.76579587 89.50416756 130.36232146 85 113 C84.79600586 112.20384277 84.59201172 111.40768555 84.38183594 110.58740234 C77.19590704 83.33421786 64.45336731 59.49006714 45 39 C44.53110352 38.49855469 44.06220703 37.99710938 43.57910156 37.48046875 C14.98011624 7.04892709 -24.93207636 -9.97628173 -66.4855957 -11.9230957 C-112.66512211 -13.24118002 -155.20286333 4.20286333 -187.64453125 36.64453125 Z M-239 152 C-241.05230773 154.14358684 -243.06624306 156.30525808 -245.0625 158.5 C-245.63033203 159.12003906 -246.19816406 159.74007812 -246.78320312 160.37890625 C-248.19121254 161.9170678 -249.59591284 163.45825724 -251 165 C-251.99 164.13375 -252.98 163.2675 -254 162.375 C-257.86190708 159.05802459 -261.89447006 156.00716738 -266 153 C-268.53662009 196.9680816 -247.92952355 243.6153912 -219.2421875 276.15625 C-216.55053905 279.15869463 -213.78267759 282.08177651 -211 285 C-210.16210938 285.90234375 -209.32421875 286.8046875 -208.4609375 287.734375 C-194.80095944 302.0133853 -177.18774246 315.09228589 -159 323 C-156.83333333 322.16666667 -156.83333333 322.16666667 -156 320 C-150.66797039 321.68379882 -145.5766924 323.60750867 -140.4375 325.8125 C-133.76129138 328.58030122 -126.94060403 330.48897275 -119.9375 332.25 C-118.9693335 332.49596924 -118.00116699 332.74193848 -117.00366211 332.99536133 C-103.77993219 336.20739258 -90.75464204 337.41180964 -77.1875 337.375 C-76.42709412 337.37445618 -75.66668823 337.37391235 -74.88323975 337.37335205 C-48.73924425 337.28799672 -24.19736517 331.75498027 0.05029297 322.09643555 C5.68809652 319.89603217 5.68809652 319.89603217 9 321 C8.67 322.32 8.34 323.64 8 325 C47.28053679 312.95953197 80.70702985 274.4504581 99.33251953 239.49951172 C111.88898225 215.2316884 121.32788544 187.10008596 121.0625 159.5 C121.04896484 157.65921875 121.04896484 157.65921875 121.03515625 155.78125 C121.02355469 154.8634375 121.01195312 153.945625 121 153 C115.80789528 156.80304814 110.84390238 160.76158542 106 165 C101.66666667 160.66666667 97.33333333 156.33333333 93 152 C92.93530518 152.65258789 92.87061035 153.30517578 92.80395508 153.97753906 C88.09196143 200.16721067 70.74274591 242.89750937 34 273 C3.61710245 297.47936806 -33.19580071 310.50947565 -72.1875 310.3125 C-72.95757385 310.31034485 -73.72764771 310.3081897 -74.52105713 310.30596924 C-86.2427133 310.25340031 -97.56753018 309.8033353 -109 307 C-110.24595947 306.70198486 -110.24595947 306.70198486 -111.51708984 306.39794922 C-135.05824721 300.60914003 -157.11357618 290.28060459 -176 275 C-176.52158691 274.58524414 -177.04317383 274.17048828 -177.58056641 273.74316406 C-195.24903687 259.64445662 -208.30964448 242.82701512 -219 223 C-219.78310547 221.60974609 -219.78310547 221.60974609 -220.58203125 220.19140625 C-231.84002151 199.24976209 -236.00700561 175.4176841 -238 152 C-238.33 152 -238.66 152 -239 152 Z M-150 326 C-149.54109375 326.71285156 -149.0821875 327.42570312 -148.609375 328.16015625 C-145.27007695 333.37254796 -142.00642459 338.58843574 -139 344 C-139.55171875 344.25523437 -140.1034375 344.51046875 -140.671875 344.7734375 C-143.36637058 346.19302074 -145.76778728 347.86132254 -148.25 349.625 C-149.58804688 350.57246094 -149.58804688 350.57246094 -150.953125 351.5390625 C-151.62859375 352.02117187 -152.3040625 352.50328125 -153 353 C-150.08621979 355.41287525 -147.5773079 356.64429219 -143.94921875 357.68359375 C-142.95172607 357.96960449 -141.9542334 358.25561523 -140.92651367 358.55029297 C-139.85763916 358.84307129 -138.78876465 359.13584961 -137.6875 359.4375 C-136.58188721 359.74316895 -135.47627441 360.04883789 -134.3371582 360.36376953 C-88.80994795 372.59031842 -39.24180316 370.74815329 5 354 C1.20254414 350.11103918 -2.47696896 346.98690729 -7 344 C-7.66 344 -8.32 344 -9 344 C-8.70230713 343.52578613 -8.40461426 343.05157227 -8.09790039 342.56298828 C-6.75182845 340.41757934 -5.40714859 338.2713013 -4.0625 336.125 C-3.35963867 335.00544922 -3.35963867 335.00544922 -2.64257812 333.86328125 C-2.19462891 333.14785156 -1.74667969 332.43242187 -1.28515625 331.6953125 C-0.87144775 331.03547363 -0.45773926 330.37563477 -0.03149414 329.69580078 C1.04572874 327.97748532 1.04572874 327.97748532 2 326 C-1.58840162 326.65335839 -4.9726139 327.57199271 -8.4375 328.70703125 C-27.22426476 334.74779626 -46.32917516 340.07951951 -66.20703125 340.203125 C-66.96569489 340.21018463 -67.72435852 340.21724426 -68.50601196 340.22451782 C-100.00185079 340.4511008 -100.00185079 340.4511008 -114 337 C-114.89203125 336.78537109 -115.7840625 336.57074219 -116.703125 336.34960938 C-126.7377785 333.8884072 -136.54491686 331.20623763 -145.953125 326.8828125 C-147.93455577 325.86798894 -147.93455577 325.86798894 -150 326 Z " fill="#AA1F1D" transform="translate(275,16)"/>
<path d="M0 0 C0.74217773 0.16628906 1.48435547 0.33257813 2.24902344 0.50390625 C41.54664403 9.61541983 75.57621352 35.09925181 97 69 C106.7867422 85.30445479 113.02038649 102.46035822 117 121 C117.3403125 122.54880859 117.3403125 122.54880859 117.6875 124.12890625 C124.61705792 162.57832834 114.82959594 204.15695135 92.80859375 236.1875 C87.93573409 242.83153821 82.66624406 249.0235268 77 255 C75.66001953 256.43666016 75.66001953 256.43666016 74.29296875 257.90234375 C48.08449784 285.44820899 10.34420629 300.9354365 -27.4140625 302.28515625 C-70.82611273 303.18483809 -110.01266926 288.07324347 -141.69140625 258.27734375 C-169.43491762 230.90937907 -185.84024914 192.32376054 -186.24169922 153.45678711 C-186.26888085 140.70460559 -186.03135994 128.44364881 -183 116 C-182.81727539 115.20432617 -182.63455078 114.40865234 -182.44628906 113.58886719 C-176.73910602 89.27008232 -165.28254767 67.84236472 -149 49 C-148.57315918 48.50467773 -148.14631836 48.00935547 -147.70654297 47.49902344 C-141.37698348 40.20903718 -134.73343743 33.83399666 -127 28 C-126.20078125 27.39671875 -125.4015625 26.7934375 -124.578125 26.171875 C-107.30458565 13.64009155 -87.8071747 4.66196359 -67 0 C-65.92540527 -0.24556641 -65.92540527 -0.24556641 -64.82910156 -0.49609375 C-43.8675261 -5.07227892 -20.89591526 -4.77513493 0 0 Z M-138 44 C-138.67417969 44.62132812 -139.34835938 45.24265625 -140.04296875 45.8828125 C-166.05979377 70.70525234 -181.03595066 108.23681642 -182.203125 143.83203125 C-182.85834203 185.37196166 -168.32311645 223.05152735 -139.77734375 253.15625 C-131.57969605 261.54990334 -122.9296144 268.7338719 -113 275 C-112.10933838 275.56267578 -112.10933838 275.56267578 -111.20068359 276.13671875 C-78.33660699 296.52131667 -38.30654823 302.92503102 -0.62817383 294.47802734 C38.95124159 284.94314428 72.18168017 260.82181173 93.71582031 226.3671875 C104.4529833 208.60116601 110.82010074 189.4358561 114 169 C114.13277344 168.15566406 114.26554687 167.31132812 114.40234375 166.44140625 C119.37814125 127.11215756 106.48630228 88.21278332 82.81640625 57.1328125 C65.07209358 34.80218016 41.93441854 18.37093312 15 9 C14.35804688 8.77473633 13.71609375 8.54947266 13.0546875 8.31738281 C-40.44924682 -10.06803776 -97.65080045 5.95049576 -138 44 Z " fill="#A91E1C" transform="translate(236,16)"/>
<path d="M0 0 C3.09376131 1.58851512 4.62718184 2.70327505 5.76171875 6.03125 C5.78234375 6.77375 5.80296875 7.51625 5.82421875 8.28125 C6.66984375 8.343125 7.51546875 8.405 8.38671875 8.46875 C12.66664675 9.48036935 15.82777272 11.01164729 18.82421875 14.28125 C19.76171875 18.09375 19.76171875 18.09375 19.82421875 21.28125 C17.84421875 21.94125 15.86421875 22.60125 13.82421875 23.28125 C14.81421875 23.61125 15.80421875 23.94125 16.82421875 24.28125 C16.82421875 25.27125 16.82421875 26.26125 16.82421875 27.28125 C15.17421875 27.28125 13.52421875 27.28125 11.82421875 27.28125 C12.31921875 30.25125 12.31921875 30.25125 12.82421875 33.28125 C10.34921875 33.77625 10.34921875 33.77625 7.82421875 34.28125 C7.82421875 33.62125 7.82421875 32.96125 7.82421875 32.28125 C6.17421875 31.95125 4.52421875 31.62125 2.82421875 31.28125 C3.15421875 30.29125 3.48421875 29.30125 3.82421875 28.28125 C5.47421875 28.28125 7.12421875 28.28125 8.82421875 28.28125 C8.30730469 27.29125 7.79039062 26.30125 7.2578125 25.28125 C6.59140605 23.94843709 5.92609965 22.61507376 5.26171875 21.28125 C4.91947266 20.63285156 4.57722656 19.98445313 4.22460938 19.31640625 C1.70167689 14.16860461 1.67835926 10.89157843 2.82421875 5.28125 C1.83421875 5.61125 0.84421875 5.94125 -0.17578125 6.28125 C-0.17578125 6.94125 -0.17578125 7.60125 -0.17578125 8.28125 C-0.83578125 8.94125 -1.49578125 9.60125 -2.17578125 10.28125 C-1.18578125 10.61125 -0.19578125 10.94125 0.82421875 11.28125 C1.5506283 13.59668043 2.20853333 15.93394935 2.82421875 18.28125 C3.80903897 20.28876815 4.80574389 22.29059459 5.82421875 24.28125 C5.82421875 24.94125 5.82421875 25.60125 5.82421875 26.28125 C2.90636866 25.13495175 1.76726814 24.20650232 -0.17578125 21.65625 C-0.83578125 20.8725 -1.49578125 20.08875 -2.17578125 19.28125 C-3.49578125 19.28125 -4.81578125 19.28125 -6.17578125 19.28125 C-6.17578125 17.96125 -6.17578125 16.64125 -6.17578125 15.28125 C-7.82578125 15.94125 -9.47578125 16.60125 -11.17578125 17.28125 C-11.17578125 16.29125 -11.17578125 15.30125 -11.17578125 14.28125 C-13.15578125 14.94125 -15.13578125 15.60125 -17.17578125 16.28125 C-17.50578125 15.62125 -17.83578125 14.96125 -18.17578125 14.28125 C-18.17578125 14.94125 -18.17578125 15.60125 -18.17578125 16.28125 C-16.52578125 16.61125 -14.87578125 16.94125 -13.17578125 17.28125 C-13.17578125 18.60125 -13.17578125 19.92125 -13.17578125 21.28125 C-12.51578125 21.28125 -11.85578125 21.28125 -11.17578125 21.28125 C-11.17578125 20.62125 -11.17578125 19.96125 -11.17578125 19.28125 C-10.18578125 19.28125 -9.19578125 19.28125 -8.17578125 19.28125 C-8.17578125 19.94125 -8.17578125 20.60125 -8.17578125 21.28125 C-7.39203125 21.095625 -6.60828125 20.91 -5.80078125 20.71875 C-3.17578125 20.28125 -3.17578125 20.28125 -1.17578125 21.28125 C0.17261726 24.2159997 1.12432355 27.13172161 1.82421875 30.28125 C-2.17578125 30.28125 -2.17578125 30.28125 -3.92578125 28.78125 C-4.33828125 28.28625 -4.75078125 27.79125 -5.17578125 27.28125 C-5.17578125 27.94125 -5.17578125 28.60125 -5.17578125 29.28125 C-6.16578125 28.95125 -7.15578125 28.62125 -8.17578125 28.28125 C-8.17578125 27.29125 -8.17578125 26.30125 -8.17578125 25.28125 C-8.83578125 25.28125 -9.49578125 25.28125 -10.17578125 25.28125 C-10.50578125 26.60125 -10.83578125 27.92125 -11.17578125 29.28125 C-12.16578125 29.28125 -13.15578125 29.28125 -14.17578125 29.28125 C-14.17578125 27.96125 -14.17578125 26.64125 -14.17578125 25.28125 C-14.83578125 25.28125 -15.49578125 25.28125 -16.17578125 25.28125 C-17.16578125 27.75625 -17.16578125 27.75625 -18.17578125 30.28125 C-20.17578125 29.28125 -20.17578125 29.28125 -21.17578125 26.28125 C-21.85640625 27.27125 -21.85640625 27.27125 -22.55078125 28.28125 C-23.08703125 28.94125 -23.62328125 29.60125 -24.17578125 30.28125 C-24.83578125 30.28125 -25.49578125 30.28125 -26.17578125 30.28125 C-25.84578125 28.63125 -25.51578125 26.98125 -25.17578125 25.28125 C-25.83578125 25.28125 -26.49578125 25.28125 -27.17578125 25.28125 C-27.63404187 19.5529923 -26.73403986 16.7814006 -23.17578125 12.28125 C-22.51578125 11.62125 -21.85578125 10.96125 -21.17578125 10.28125 C-21.83578125 8.96125 -22.49578125 7.64125 -23.17578125 6.28125 C-21.90877402 5.2971375 -20.63701935 4.31913503 -19.36328125 3.34375 C-18.65558594 2.79847656 -17.94789063 2.25320312 -17.21875 1.69140625 C-12.31132618 -1.695936 -5.57844788 -1.84279068 0 0 Z M-11.17578125 4.28125 C-11.17578125 4.61125 -11.17578125 4.94125 -11.17578125 5.28125 C-9.52578125 5.28125 -7.87578125 5.28125 -6.17578125 5.28125 C-6.17578125 4.95125 -6.17578125 4.62125 -6.17578125 4.28125 C-7.82578125 4.28125 -9.47578125 4.28125 -11.17578125 4.28125 Z M5.82421875 11.28125 C5.82421875 11.94125 5.82421875 12.60125 5.82421875 13.28125 C6.48421875 13.28125 7.14421875 13.28125 7.82421875 13.28125 C7.82421875 12.62125 7.82421875 11.96125 7.82421875 11.28125 C7.16421875 11.28125 6.50421875 11.28125 5.82421875 11.28125 Z " fill="#AA1F1D" transform="translate(150.17578125,153.71875)"/>
<path d="M0 0 C0.98226562 -0.0515625 1.96453125 -0.103125 2.9765625 -0.15625 C8.17432578 0.84745601 12.05249466 2.21801647 15.375 6.5 C16.50415373 11.9952148 16.22597955 17.30014774 15.9375 22.875 C15.89231679 24.3892043 15.85125881 25.90353766 15.81445312 27.41796875 C15.71565144 31.11467578 15.56059423 34.80651617 15.375 38.5 C14.27526855 37.77466064 14.27526855 37.77466064 13.15332031 37.03466797 C11.69297363 36.08551514 11.69297363 36.08551514 10.203125 35.1171875 C9.2430957 34.48925293 8.28306641 33.86131836 7.29394531 33.21435547 C-1.55624296 28.01646135 -11.62851383 27.8912255 -21.625 27.5 C-20.54964509 22.08888903 -17.46568658 17.60678177 -14.75 12.875 C-14.20730469 11.90820312 -13.66460937 10.94140625 -13.10546875 9.9453125 C-12.57824219 9.02234375 -12.05101562 8.099375 -11.5078125 7.1484375 C-11.02715332 6.30458496 -10.54649414 5.46073242 -10.05126953 4.59130859 C-7.31333865 0.57673894 -4.58921134 0.14230113 0 0 Z " fill="#AC201E" transform="translate(186.625,248.5)"/>
<path d="M0 0 C1.46179688 -0.00580078 1.46179688 -0.00580078 2.953125 -0.01171875 C7.5920773 1.14801933 9.67418168 3.98248873 12.17138672 7.94018555 C13.68981373 10.55855363 15.1354873 13.20578131 16.5625 15.875 C17.31563477 17.24688477 17.31563477 17.24688477 18.08398438 18.64648438 C21.75 25.40492134 21.75 25.40492134 21.75 27.6875 C20.73421875 27.71328125 19.7184375 27.7390625 18.671875 27.765625 C5.39272483 28.24988721 -4.24466088 31.04603983 -15.25 38.6875 C-15.47346359 34.24038354 -15.63620917 29.79628018 -15.74438477 25.34521484 C-15.78949166 23.83356802 -15.85080227 22.32231066 -15.92895508 20.81201172 C-16.55674827 8.36283175 -16.55674827 8.36283175 -13.42626953 4.34936523 C-9.26576533 1.40514982 -5.14451743 -0.13067624 0 0 Z " fill="#AC201E" transform="translate(218.25,248.3125)"/>
<path d="M0 0 C-0.66 0.33 -1.32 0.66 -2 1 C-2 2.32 -2 3.64 -2 5 C-1.01 5.66 -0.02 6.32 1 7 C2.1875 10.125 2.1875 10.125 3 13 C1.75823305 13.70226141 0.50614401 14.38629109 -0.75 15.0625 C-1.44609375 15.44535156 -2.1421875 15.82820313 -2.859375 16.22265625 C-6.35807041 17.49316791 -8.47337731 16.23937395 -11.75 14.75 C-12.4925 14.1725 -13.235 13.595 -14 13 C-14.3125 10.3125 -14.3125 10.3125 -14 8 C-12.68 7.67 -11.36 7.34 -10 7 C-10 6.34 -10 5.68 -10 5 C-13.465 6.485 -13.465 6.485 -17 8 C-16.505 9.0725 -16.01 10.145 -15.5 11.25 C-14.11346089 14.25416808 -14 15.45934895 -14 19 C-17 18 -17 18 -18.6875 15.0625 C-20 12 -20 12 -20 10 C-20.99 10.66 -21.98 11.32 -23 12 C-21.35 14.64 -19.7 17.28 -18 20 C-21.55904092 23.2450079 -24.11197846 24.89599954 -29 25 C-31.375 23.6875 -31.375 23.6875 -33 22 C-33 21.34 -33 20.68 -33 20 C-32.01 19.34 -31.02 18.68 -30 18 C-31.32 18 -32.64 18 -34 18 C-34.66 18 -35.32 18 -36 18 C-35.360625 19.0725 -34.72125 20.145 -34.0625 21.25 C-32.59398727 23.80822182 -31.47145458 26.05340886 -31 29 C-31.99 29 -32.98 29 -34 29 C-35.28125 27.50390625 -35.28125 27.50390625 -36.5 25.5625 C-38.46619621 22.40503705 -38.46619621 22.40503705 -42 21 C-42.6875 17.6875 -42.6875 17.6875 -43 14 C-41.8203125 12.26953125 -41.8203125 12.26953125 -40 11 C-37.73046875 10.8125 -37.73046875 10.8125 -35.1875 11 C-30.67580362 11.15853692 -27.89270657 10.45855152 -24 8 C-24.061875 7.05125 -24.12375 6.1025 -24.1875 5.125 C-24.0946875 3.578125 -24.0946875 3.578125 -24 2 C-20.85388747 -0.09740836 -20.08811922 -0.25328219 -16.5 -0.1875 C-15.7265625 -0.18105469 -14.953125 -0.17460938 -14.15625 -0.16796875 C-12 0 -12 0 -9 1 C-8.195625 0.67 -7.39125 0.34 -6.5625 0 C-3.7718276 -1.08904289 -2.74630362 -1.01714949 0 0 Z M-22 4 C-21.67 4.66 -21.34 5.32 -21 6 C-17.06924356 5.42547254 -17.06924356 5.42547254 -14 3 C-17.40254489 1.7848054 -18.93251126 2.13759612 -22 4 Z M-5 6 C-5.33 6.99 -5.66 7.98 -6 9 C-5.34 9 -4.68 9 -4 9 C-3.67 8.01 -3.34 7.02 -3 6 C-3.66 6 -4.32 6 -5 6 Z M-40 15 C-40 15.66 -40 16.32 -40 17 C-36.73045798 16.43628586 -35.17424117 15.50037734 -33 13 C-37.04622502 12.63019987 -37.04622502 12.63019987 -40 15 Z M-28 13 C-27.67 13.99 -27.34 14.98 -27 16 C-26.34 15.34 -25.68 14.68 -25 14 C-25.99 13.67 -26.98 13.34 -28 13 Z M-27 18 C-27.33 19.32 -27.66 20.64 -28 22 C-26.02 21.67 -24.04 21.34 -22 21 C-22.33 20.01 -22.66 19.02 -23 18 C-24.32 18 -25.64 18 -27 18 Z " fill="#A71C1B" transform="translate(163,38)"/>
<path d="M0 0 C9.45580058 1.49744885 18.24139572 5.30272032 27 9 C27.33 7.68 27.66 6.36 28 5 C30.97 5.495 30.97 5.495 34 6 C34 6.99 34 7.98 34 9 C32.68 9.33 31.36 9.66 30 10 C30.86334961 10.51385254 30.86334961 10.51385254 31.74414062 11.03808594 C34.33873088 12.59378965 36.9192524 14.17144883 39.5 15.75 C40.40621094 16.28882812 41.31242187 16.82765625 42.24609375 17.3828125 C43.10332031 17.91132812 43.96054687 18.43984375 44.84375 18.984375 C45.63974609 19.46616211 46.43574219 19.94794922 47.25585938 20.44433594 C47.83142578 20.95770508 48.40699219 21.47107422 49 22 C49 23.32 49 24.64 49 26 C48.401875 26.226875 47.80375 26.45375 47.1875 26.6875 C44.78088585 27.89660151 44.78088585 27.89660151 43.4375 30.625 C42.963125 31.40875 42.48875 32.1925 42 33 C41.01 33 40.02 33 39 33 C39.64544429 29.51460083 41.10134397 26.97180943 43 24 C42.67 23.67 42.34 23.34 42 23 C39.525 26.465 39.525 26.465 37 30 C36.01 29.67 35.02 29.34 34 29 C34.495 27.515 34.495 27.515 35 26 C34.21625 26.04125 33.4325 26.0825 32.625 26.125 C30 26 30 26 28 24 C27.66666667 18.66666667 27.66666667 18.66666667 29 16 C29.99 16 30.98 16 32 16 C31.67 18.31 31.34 20.62 31 23 C31.99 23 32.98 23 34 23 C33.67 21.35 33.34 19.7 33 18 C34.65 18.33 36.3 18.66 38 19 C34.7 17.35 31.4 15.7 28 14 C26.02 18.455 26.02 18.455 24 23 C23.01 22.67 22.02 22.34 21 22 C21.66 20.02 22.32 18.04 23 16 C22.01 16 21.02 16 20 16 C20 16.66 20 17.32 20 18 C18.35 18 16.7 18 15 18 C14.34 16.68 13.68 15.36 13 14 C12.67 14.33 12.34 14.66 12 15 C7.70042393 15.53199623 4.15351755 15.73149894 0.4375 13.375 C-1.3625104 10.40106977 -1.31068741 8.41756151 -1 5 C-0.34 4.67 0.32 4.34 1 4 C0.34 3.01 -0.32 2.02 -1 1 C-0.67 0.67 -0.34 0.34 0 0 Z M11 6 C11.99 7.98 12.98 9.96 14 12 C15.98 11.67 17.96 11.34 20 11 C19.67 10.01 19.34 9.02 19 8 C17.12612784 7.19787372 17.12612784 7.19787372 14.9375 6.8125 C14.20402344 6.65394531 13.47054687 6.49539062 12.71484375 6.33203125 C12.14894531 6.22246094 11.58304688 6.11289062 11 6 Z M2 7 C2 7.99 2 8.98 2 10 C2.99 10 3.98 10 5 10 C5 9.01 5 8.02 5 7 C4.01 7 3.02 7 2 7 Z M8 9 C7.67 9.99 7.34 10.98 7 12 C8.32 11.67 9.64 11.34 11 11 C10.67 10.34 10.34 9.68 10 9 C9.34 9 8.68 9 8 9 Z M23 11 C22.67 11.66 22.34 12.32 22 13 C22.99 13 23.98 13 25 13 C25 12.34 25 11.68 25 11 C24.34 11 23.68 11 23 11 Z " fill="#A61C1B" transform="translate(235,34)"/>
<path d="M0 0 C1.2065625 0.0309375 1.2065625 0.0309375 2.4375 0.0625 C2.4375 1.0525 2.4375 2.0425 2.4375 3.0625 C1.7775 3.0625 1.1175 3.0625 0.4375 3.0625 C0.1075 4.0525 -0.2225 5.0425 -0.5625 6.0625 C0.4275 5.8975 1.4175 5.7325 2.4375 5.5625 C6.46482942 4.97775483 10.37224623 4.99117976 14.4375 5.0625 C14.7675 3.4125 15.0975 1.7625 15.4375 0.0625 C20.36741345 -0.22749491 23.53001769 -0.13453098 27.4375 3.0625 C27.4375 4.0525 27.4375 5.0425 27.4375 6.0625 C29.4175 6.0625 31.3975 6.0625 33.4375 6.0625 C33.4375 7.0525 33.4375 8.0425 33.4375 9.0625 C32.4475 9.0625 31.4575 9.0625 30.4375 9.0625 C30.4375 12.6925 30.4375 16.3225 30.4375 20.0625 C29.4475 19.7325 28.4575 19.4025 27.4375 19.0625 C26.9425 16.0925 26.9425 16.0925 26.4375 13.0625 C25.4475 13.0625 24.4575 13.0625 23.4375 13.0625 C24.0975 15.0425 24.7575 17.0225 25.4375 19.0625 C23.7875 18.7325 22.1375 18.4025 20.4375 18.0625 C19.8125 15.75 19.8125 15.75 19.4375 13.0625 C20.0975 12.0725 20.7575 11.0825 21.4375 10.0625 C25.0625 9.875 25.0625 9.875 28.4375 10.0625 C28.4375 9.4025 28.4375 8.7425 28.4375 8.0625 C25.1375 8.0625 21.8375 8.0625 18.4375 8.0625 C18.4375 11.6925 18.4375 15.3225 18.4375 19.0625 C17.4475 19.0625 16.4575 19.0625 15.4375 19.0625 C15.4375 15.4325 15.4375 11.8025 15.4375 8.0625 C14.4475 8.0625 13.4575 8.0625 12.4375 8.0625 C12.4375 11.6925 12.4375 15.3225 12.4375 19.0625 C11.4475 19.0625 10.4575 19.0625 9.4375 19.0625 C9.4375 18.4025 9.4375 17.7425 9.4375 17.0625 C8.633125 17.083125 7.82875 17.10375 7 17.125 C4.4375 17.0625 4.4375 17.0625 3.4375 16.0625 C3.3125 13.0625 3.3125 13.0625 3.4375 10.0625 C3.7675 9.7325 4.0975 9.4025 4.4375 9.0625 C3.1175 8.7325 1.7975 8.4025 0.4375 8.0625 C0.7675 12.0225 1.0975 15.9825 1.4375 20.0625 C0.4475 20.0625 -0.5425 20.0625 -1.5625 20.0625 C-1.68625 19.423125 -1.81 18.78375 -1.9375 18.125 C-2.14375 17.444375 -2.35 16.76375 -2.5625 16.0625 C-3.2225 15.7325 -3.8825 15.4025 -4.5625 15.0625 C-4.5625 16.3825 -4.5625 17.7025 -4.5625 19.0625 C-6.9375 19.6875 -6.9375 19.6875 -9.5625 20.0625 C-10.2225 19.4025 -10.8825 18.7425 -11.5625 18.0625 C-11.1875 15.4375 -11.1875 15.4375 -10.5625 13.0625 C-11.2225 13.0625 -11.8825 13.0625 -12.5625 13.0625 C-12.2325 11.4125 -11.9025 9.7625 -11.5625 8.0625 C-10.799375 8.083125 -10.03625 8.10375 -9.25 8.125 C-6.46064214 8.19192841 -6.46064214 8.19192841 -3.5625 7.0625 C-3.583125 6.093125 -3.60375 5.12375 -3.625 4.125 C-3.54257968 0.08640438 -3.54257968 0.08640438 0 0 Z M17.4375 2.0625 C17.4375 3.0525 17.4375 4.0425 17.4375 5.0625 C19.7475 5.3925 22.0575 5.7225 24.4375 6.0625 C22.62527466 4.0000006 22.62527466 4.0000006 20.4375 2.0625 C19.4475 2.0625 18.4575 2.0625 17.4375 2.0625 Z M-5.5625 9.0625 C-5.5625 10.0525 -5.5625 11.0425 -5.5625 12.0625 C-4.5725 12.0625 -3.5825 12.0625 -2.5625 12.0625 C-2.5625 11.0725 -2.5625 10.0825 -2.5625 9.0625 C-3.5525 9.0625 -4.5425 9.0625 -5.5625 9.0625 Z M6.4375 11.0625 C6.4375 12.0525 6.4375 13.0425 6.4375 14.0625 C7.4275 14.0625 8.4175 14.0625 9.4375 14.0625 C9.4375 13.0725 9.4375 12.0825 9.4375 11.0625 C8.4475 11.0625 7.4575 11.0625 6.4375 11.0625 Z " fill="#A81D1B" transform="translate(188.5625,24.9375)"/>
<path d="M0 0 C1.29608947 0.93137592 2.58671632 1.8703566 3.875 2.8125 C4.59429687 3.33457031 5.31359375 3.85664063 6.0546875 4.39453125 C8.60762034 6.5014698 9.87970912 8.19806081 10.375 11.5 C10 14 10 14 8.25 15.8125 C6 17 6 17 2 17 C2 18.98 2 20.96 2 23 C2.96421875 22.41089844 3.9284375 21.82179688 4.921875 21.21484375 C6.19752959 20.45507888 7.47359285 19.69599988 8.75 18.9375 C9.38421875 18.54755859 10.0184375 18.15761719 10.671875 17.75585938 C15.50498766 14.91137119 15.50498766 14.91137119 18.21582031 15.39672852 C19.09898926 15.6953479 19.09898926 15.6953479 20 16 C21.63204491 20.95477109 20.18005109 24.58654787 18.5625 29.3125 C18.31951172 30.05306641 18.07652344 30.79363281 17.82617188 31.55664062 C17.22800422 33.37460115 16.61542141 35.18780755 16 37 C14.35 36.34 12.7 35.68 11 35 C11.33 33.02 11.66 31.04 12 29 C8.41675986 27.20809198 8.41675986 27.20809198 4.5625 27.6875 C2 28 2 28 -1.3125 26.1875 C-3.44003461 24.27217472 -3.95496857 23.30454243 -4.37890625 20.4375 C-4.37534646 17.93141131 -4.26125696 15.49161727 -4 13 C-5.65 14.32 -7.3 15.64 -9 17 C-10.32 16.34 -11.64 15.68 -13 15 C-11.38989473 10.92623969 -8.46177729 8.23492931 -5.375 5.25 C-4.859375 4.74339844 -4.34375 4.23679687 -3.8125 3.71484375 C-2.54616661 2.47196098 -1.2736856 1.23534724 0 0 Z M0 7 C-0.33 7.99 -0.66 8.98 -1 10 C1.81509993 12.2773501 1.81509993 12.2773501 5 12 C4.20882096 10.00016466 4.20882096 10.00016466 3 8 C2.01 7.67 1.02 7.34 0 7 Z M13 22 C12.67 22.99 12.34 23.98 12 25 C12.99 24.67 13.98 24.34 15 24 C15 23.34 15 22.68 15 22 C14.34 22 13.68 22 13 22 Z " fill="#A91E1C" transform="translate(81,282)"/>
<path d="M0 0 C3.48573275 1.31197476 6.28006162 3.52840899 9.27832031 5.70092773 C10.25285156 6.38445312 10.25285156 6.38445312 11.24707031 7.08178711 C12.88144755 8.25434977 14.46027275 9.50353925 16.02832031 10.76342773 C16.02832031 11.42342773 16.02832031 12.08342773 16.02832031 12.76342773 C13.77832031 13.88842773 13.77832031 13.88842773 11.02832031 14.76342773 C9.69498698 14.09676107 8.36165365 13.4300944 7.02832031 12.76342773 C4.30899102 13.55045124 4.30899102 13.55045124 2.02832031 14.76342773 C2.35832031 16.41342773 2.68832031 18.06342773 3.02832031 19.76342773 C-3.54945108 24.05179298 -3.54945108 24.05179298 -6.95605469 23.36108398 C-8.6641663 22.56907497 -10.32126045 21.66954026 -11.97167969 20.76342773 C-12.96167969 20.76342773 -13.95167969 20.76342773 -14.97167969 20.76342773 C-14.31167969 22.74342773 -13.65167969 24.72342773 -12.97167969 26.76342773 C-14.95167969 27.75342773 -14.95167969 27.75342773 -16.97167969 28.76342773 C-18.31268018 26.32987103 -19.64462825 23.89207472 -20.97167969 21.45092773 C-21.35324219 20.76063477 -21.73480469 20.0703418 -22.12792969 19.35913086 C-24.97167969 14.10327148 -24.97167969 14.10327148 -24.97167969 10.76342773 C-15.35370594 5.97581414 -15.35370594 5.97581414 -9.97167969 6.76342773 C-9.31167969 7.42342773 -8.65167969 8.08342773 -7.97167969 8.76342773 C-8.06449219 10.46499023 -8.06449219 10.46499023 -8.15917969 12.20092773 C-8.09730469 13.37655273 -8.03542969 14.55217773 -7.97167969 15.76342773 C-6.32167969 16.75342773 -4.67167969 17.74342773 -2.97167969 18.76342773 C-3.63167969 13.15342773 -4.29167969 7.54342773 -4.97167969 1.76342773 C-1.97167969 -0.23657227 -1.97167969 -0.23657227 0 0 Z M1.02832031 6.76342773 C1.35832031 8.08342773 1.68832031 9.40342773 2.02832031 10.76342773 C2.68832031 10.10342773 3.34832031 9.44342773 4.02832031 8.76342773 C3.03832031 8.10342773 2.04832031 7.44342773 1.02832031 6.76342773 Z M-18.97167969 12.76342773 C-18.64167969 13.75342773 -18.31167969 14.74342773 -17.97167969 15.76342773 C-15.99167969 15.10342773 -14.01167969 14.44342773 -11.97167969 13.76342773 C-12.30167969 12.77342773 -12.63167969 11.78342773 -12.97167969 10.76342773 C-15.4344677 10.76342773 -16.82392087 11.61795637 -18.97167969 12.76342773 Z " fill="#A81E1C" transform="translate(288.9716796875,309.236572265625)"/>
<path d="M0 0 C1 1 1 1 1 6 C4.3 6.33 7.6 6.66 11 7 C10.125 9.5 10.125 9.5 8 12 C4.63291991 12.46087248 1.37885612 12.28526928 -2 12 C-0.68 13.32 0.64 14.64 2 16 C1.01 18.475 1.01 18.475 0 21 C-4.63708939 18.39163722 -8.78744458 15.22997426 -13 12 C-13.99 12.99 -14.98 13.98 -16 15 C-12.7 18.3 -9.4 21.6 -6 25 C-7.32 26.32 -8.64 27.64 -10 29 C-13.3 26.03 -16.6 23.06 -20 20 C-21.65 20.66 -23.3 21.32 -25 22 C-25.66 20.68 -26.32 19.36 -27 18 C-26.03578125 17.11957031 -25.0715625 16.23914063 -24.078125 15.33203125 C-22.8019116 14.15904099 -21.52587949 12.98585346 -20.25 11.8125 C-19.61578125 11.23435547 -18.9815625 10.65621094 -18.328125 10.06054688 C-14.88969687 6.89074594 -11.88902867 3.69228664 -9 0 C-5.90842747 -1.54578627 -3.31526981 -0.60277633 0 0 Z M-6 4 C-7.485 5.98 -7.485 5.98 -9 8 C-7.68 8 -6.36 8 -5 8 C-4.34 7.01 -3.68 6.02 -3 5 C-3.99 4.67 -4.98 4.34 -6 4 Z " fill="#A51D1B" transform="translate(340,273)"/>
<path d="M0 0 C1.75070517 0.11470137 3.50057536 0.24219028 5.25 0.375 C6.22453125 0.44460938 7.1990625 0.51421875 8.203125 0.5859375 C11 1 11 1 13.046875 2.1015625 C15.70017926 3.32208246 17.1838057 2.63645159 20 2 C22.10762055 2.08197771 24.21352626 2.22990919 26.3125 2.4375 C27.91544922 2.59025391 27.91544922 2.59025391 29.55078125 2.74609375 C30.35902344 2.82988281 31.16726562 2.91367187 32 3 C32 4.65 32 6.3 32 8 C30.02 7.67 28.04 7.34 26 7 C26.01160156 7.66386719 26.02320313 8.32773437 26.03515625 9.01171875 C26.12478032 17.78207381 26.12478032 17.78207381 25 22 C23.35 22 21.7 22 20 22 C20.33 17.38 20.66 12.76 21 8 C19.35 7.34 17.7 6.68 16 6 C15.67 7.65 15.34 9.3 15 11 C13.68 11.33 12.36 11.66 11 12 C11.495 12.928125 11.99 13.85625 12.5 14.8125 C14 18 14 18 14 21 C12.35 21 10.7 21 9 21 C8.73445312 20.43410156 8.46890625 19.86820312 8.1953125 19.28515625 C7.66550781 18.18494141 7.66550781 18.18494141 7.125 17.0625 C6.77695313 16.33160156 6.42890625 15.60070312 6.0703125 14.84765625 C5.1315023 12.83667541 5.1315023 12.83667541 3 12 C2.67 14.31 2.34 16.62 2 19 C0.35 18.67 -1.3 18.34 -3 18 C-2.6889315 15.93728361 -2.37608484 13.87483534 -2.0625 11.8125 C-1.88847656 10.66394531 -1.71445313 9.51539063 -1.53515625 8.33203125 C-1.08620687 5.53674788 -0.57917838 2.77066414 0 0 Z M4 5 C4 5.99 4 6.98 4 8 C6.97 8.495 6.97 8.495 10 9 C10.33 8.01 10.66 7.02 11 6 C8.69 5.67 6.38 5.34 4 5 Z " fill="#AA1E1C" transform="translate(166,328)"/>
<path d="M0 0 C1.98 0.66 3.96 1.32 6 2 C5.67 4.97 5.34 7.94 5 11 C5.721875 10.154375 6.44375 9.30875 7.1875 8.4375 C10 6 10 6 12.6875 6 C15 7 15 7 17 10 C15.57253413 12.31925796 14.13385146 14.63006488 12.6875 16.9375 C12.28337891 17.59685547 11.87925781 18.25621094 11.46289062 18.93554688 C8.33984375 23.88671875 8.33984375 23.88671875 5 25 C4.34 24.67 3.68 24.34 3 24 C3.33 22.35 3.66 20.7 4 19 C3.34 19.66 2.68 20.32 2 21 C-0.625 20.625 -0.625 20.625 -3 20 C-3 18.35 -3 16.7 -3 15 C-3.99 16.485 -3.99 16.485 -5 18 C-6.32 17.67 -7.64 17.34 -9 17 C-8.46014954 12.38127938 -6.56034183 9.47604931 -3.9375 5.6875 C-2.83728516 4.08455078 -2.83728516 4.08455078 -1.71484375 2.44921875 C-1.14894531 1.64097656 -0.58304688 0.83273437 0 0 Z M-2 11 C-1 13 -1 13 -1 13 Z " fill="#A91E1C" transform="translate(107,304)"/>
<path d="M0 0 C1.98 0.66 3.96 1.32 6 2 C6 4.97 6 7.94 6 11 C7.65 9.02 9.3 7.04 11 5 C13.475 5.495 13.475 5.495 16 6 C17.35114472 9.05744748 16.9224598 10.22040365 15.78515625 13.453125 C15.22254947 14.72395443 14.64790949 15.98951218 14.0625 17.25 C13.77181641 17.8996875 13.48113281 18.549375 13.18164062 19.21875 C12.46471025 20.81715215 11.73371051 22.40923054 11 24 C9.35 23.67 7.7 23.34 6 23 C6.33 21.35 6.66 19.7 7 18 C6.01 19.32 5.02 20.64 4 22 C2.35 21.67 0.7 21.34 -1 21 C-1 19.02 -1 17.04 -1 15 C-1.66 16.32 -2.32 17.64 -3 19 C-4.32 18.67 -5.64 18.34 -7 18 C-6.44380331 13.3110507 -5.11817327 9.80075733 -2.9375 5.625 C-2.38964844 4.56539063 -1.84179688 3.50578125 -1.27734375 2.4140625 C-0.85582031 1.61742187 -0.43429688 0.82078125 0 0 Z " fill="#A91E1C" transform="translate(131,316)"/>
<path d="M0 0 C0.67286212 2.41509441 1.33846012 4.83180356 2 7.25 C2.19078125 7.93191406 2.3815625 8.61382812 2.578125 9.31640625 C3.49957044 12.70600912 4 15.45778976 4 19 C2.35 18.67 0.7 18.34 -1 18 C-1.33 17.01 -1.66 16.02 -2 15 C-2.33 16.65 -2.66 18.3 -3 20 C-4.65 20.33 -6.3 20.66 -8 21 C-8.66 19.68 -9.32 18.36 -10 17 C-10 18.65 -10 20.3 -10 22 C-11.32 22.33 -12.64 22.66 -14 23 C-16.5957524 16.7465965 -17.9559635 10.68183363 -19 4 C-15.535 3.505 -15.535 3.505 -12 3 C-10.68 5.31 -9.36 7.62 -8 10 C-7.67 7.03 -7.34 4.06 -7 1 C-3 0 -3 0 0 0 Z " fill="#A91E1C" transform="translate(246,326)"/>
<path d="M0 0 C3.92393181 3.65331583 6.77546944 6.70978827 7.3125 12.1875 C7 15 7 15 5 17 C1.875 17.125 1.875 17.125 -1 17 C-2.32 19.64 -3.64 22.28 -5 25 C-6.32 24.01 -7.64 23.02 -9 22 C-7.515 16.555 -7.515 16.555 -6 11 C-9.96 12.98 -9.96 12.98 -14 15 C-14.66 13.68 -15.32 12.36 -16 11 C-14.27278316 9.72651788 -12.54313762 8.45632943 -10.8125 7.1875 C-9.84957031 6.47980469 -8.88664062 5.77210938 -7.89453125 5.04296875 C-5.3220667 3.22731563 -2.72279516 1.57792699 0 0 Z M-2 7 C-2.33 7.66 -2.66 8.32 -3 9 C-2.01 10.32 -1.02 11.64 0 13 C0.99 12.67 1.98 12.34 3 12 C1.6446674 9.46326712 1.6446674 9.46326712 0 7 C-0.66 7 -1.32 7 -2 7 Z " fill="#A91E1C" transform="translate(62,259)"/>
<path d="M0 0 C2.25 0 2.25 0 5 1 C6.67198768 3.52667787 7.85805571 6.19936568 9 9 C9.66 6.69 10.32 4.38 11 2 C12.32 2 13.64 2 15 2 C15.24794402 8.5705166 14.32388229 14.56971459 13 21 C10.64453125 20.78515625 10.64453125 20.78515625 8 20 C6.63671875 17.93359375 6.63671875 17.93359375 5.6875 15.4375 C5.19830078 14.19806641 5.19830078 14.19806641 4.69921875 12.93359375 C4.35310547 11.97646484 4.35310547 11.97646484 4 11 C3.34 13.64 2.68 16.28 2 19 C0.68 19 -0.64 19 -2 19 C-1.50873071 12.63440427 -1.00344253 6.30735307 0 0 Z " fill="#AB1F1D" transform="translate(174,359)"/>
<path d="M0 0 C0 3.3 0 6.6 0 10 C5.445 11.98 5.445 11.98 11 14 C10.34 15.32 9.68 16.64 9 18 C4.94393835 17.53199289 1.53411321 17.12046792 -2 15 C-1.01 17.64 -0.02 20.28 1 23 C0.34 23.66 -0.32 24.32 -1 25 C-1.99 25 -2.98 25 -4 25 C-5.87129629 22.93420677 -7.52955252 20.91307571 -9.1875 18.6875 C-9.88262695 17.79514648 -9.88262695 17.79514648 -10.59179688 16.88476562 C-14 12.39236239 -14 12.39236239 -14 9 C-12.1875 8.3125 -12.1875 8.3125 -10 8 C-8.36328125 9.48046875 -8.36328125 9.48046875 -7 11 C-6.81824219 10.37351562 -6.63648438 9.74703125 -6.44921875 9.1015625 C-6.19785156 8.28429687 -5.94648438 7.46703125 -5.6875 6.625 C-5.44386719 5.81289063 -5.20023437 5.00078125 -4.94921875 4.1640625 C-3.96230437 1.91406018 -2.8329732 0 0 0 Z " fill="#AA1E1C" transform="translate(309,295)"/>
<path d="M0 0 C0.33 1.65 0.66 3.3 1 5 C-0.65 5.99 -2.3 6.98 -4 8 C-3.01 9.485 -3.01 9.485 -2 11 C0.31 10.34 2.62 9.68 5 9 C5.66 10.65 6.32 12.3 7 14 C4.5664433 15.3410005 2.12864699 16.67294856 -0.3125 18 C-1.00279297 18.3815625 -1.69308594 18.763125 -2.40429688 19.15625 C-7.66015625 22 -7.66015625 22 -11 22 C-11.33 20.68 -11.66 19.36 -12 18 C-10.35 17.01 -8.7 16.02 -7 15 C-7.33 13.68 -7.66 12.36 -8 11 C-10.64 11.66 -13.28 12.32 -16 13 C-16.66 11.68 -17.32 10.36 -18 9 C-15.37785672 7.49480613 -12.75255792 5.99568681 -10.125 4.5 C-9.37863281 4.07074219 -8.63226563 3.64148438 -7.86328125 3.19921875 C-7.14785156 2.79316406 -6.43242188 2.38710937 -5.6953125 1.96875 C-5.03547363 1.59169922 -4.37563477 1.21464844 -3.69580078 0.82617188 C-2 0 -2 0 0 0 Z " fill="#AB1E1C" transform="translate(54,245)"/>
<path d="M0 0 C5.86995516 -0.64035874 5.86995516 -0.64035874 8.875 1.0625 C10.58112046 4.00081858 10.81989972 6.63812807 11 10 C10.01 11.485 10.01 11.485 9 13 C8.01 13 7.02 13 6 13 C5.17361624 10.10765685 5 8.11257569 5 5 C4.34 4.67 3.68 4.34 3 4 C3.10699219 4.68707031 3.21398438 5.37414062 3.32421875 6.08203125 C3.44410156 6.98308594 3.56398438 7.88414062 3.6875 8.8125 C3.81511719 9.70582031 3.94273438 10.59914062 4.07421875 11.51953125 C4 14 4 14 2.734375 15.7890625 C-0.24318025 17.86798621 -2.50687409 17.5515462 -6 17 C-9.23441548 13.68472414 -10 11.89192029 -10 7.25 C-9 4 -9 4 -6.9375 2.5625 C-5.9784375 2.2840625 -5.9784375 2.2840625 -5 2 C-3.38050989 4.57213134 -2.95591249 5.67669159 -3.375 8.75 C-3.58125 9.4925 -3.7875 10.235 -4 11 C-3.34 11.33 -2.68 11.66 -2 12 C-2.02320313 11.38511719 -2.04640625 10.77023438 -2.0703125 10.13671875 C-2.08835937 9.32847656 -2.10640625 8.52023438 -2.125 7.6875 C-2.14820313 6.88699219 -2.17140625 6.08648437 -2.1953125 5.26171875 C-2 3 -2 3 0 0 Z " fill="#AA1E1C" transform="translate(40,233)"/>
<path d="M0 0 C2.375 1.3125 2.375 1.3125 4 3 C4 3.99 4 4.98 4 6 C3.01 6.33 2.02 6.66 1 7 C1.99 7.5259375 1.99 7.5259375 3 8.0625 C5 10 5 10 5.5625 13.5 C5 17 5 17 2.875 18.9375 C-0.46990767 20.17366153 -2.46803135 20.58866144 -6 20 C-8.875 17.625 -8.875 17.625 -11 15 C-11 14.34 -11 13.68 -11 13 C-8.625 12.875 -8.625 12.875 -6 13 C-5.34 13.66 -4.68 14.32 -4 15 C-1.89179203 14.6814823 -1.89179203 14.6814823 0 14 C0 13.67 0 13.34 0 13 C-3.3 12.01 -6.6 11.02 -10 10 C-10.6875 7.1875 -10.6875 7.1875 -11 4 C-8.06100158 -0.05861687 -4.80804562 -0.38464365 0 0 Z M-4 4 C-4.66 4.66 -5.32 5.32 -6 6 C-3.525 6.495 -3.525 6.495 -1 7 C-1.33 6.01 -1.66 5.02 -2 4 C-2.66 4 -3.32 4 -4 4 Z " fill="#AA1E1C" transform="translate(223,330)"/>
<path d="M0 0 C-0.25 1.875 -0.25 1.875 -1 4 C-3.0625 5.25 -3.0625 5.25 -5 6 C-4.67 6.33 -4.34 6.66 -4 7 C-3.29875 6.34 -2.5975 5.68 -1.875 5 C1.47798748 2.66748697 3.00199836 2.39160845 7 3 C8.875 4.125 8.875 4.125 10 6 C10.5768194 9.79052747 10.29585059 11.50691568 8.3125 14.8125 C5.75031189 17.23619145 4.5013183 17.91022261 1 18 C0.01 17.34 -0.98 16.68 -2 16 C0 13 0 13 2.0625 12.5 C2.701875 12.335 3.34125 12.17 4 12 C4.33 11.01 4.66 10.02 5 9 C2.50638429 10.20381448 0.31856917 11.45428722 -2 13 C-5 13.375 -5 13.375 -8 13 C-10 11.375 -10 11.375 -11 9 C-10.37388595 5.93204116 -9.48358024 3.72537036 -7.75 1.125 C-5.18174295 -0.52602239 -2.9766971 -0.19844647 0 0 Z " fill="#A81D1C" transform="translate(358,245)"/>
<path d="M0 0 C10.3174971 -0.36848204 10.3174971 -0.36848204 13.30078125 1.2421875 C15.86747202 3.89738485 15.85317669 6.13772302 16.109375 9.70703125 C15.95066268 13.03432163 14.84440775 15.26754407 13 18 C10.23547967 19.38226016 7.9538637 19.09525387 4.875 19.0625 C1.966875 19.0315625 1.966875 19.0315625 -1 19 C-0.67 12.73 -0.34 6.46 0 0 Z M5 4 C3.74050951 5.03406673 3.74050951 5.03406673 3.90234375 7.28515625 C3.91394531 8.20167969 3.92554688 9.11820312 3.9375 10.0625 C3.94652344 10.98160156 3.95554688 11.90070313 3.96484375 12.84765625 C3.97644531 13.55792969 3.98804688 14.26820313 4 15 C6.41645782 15.16687448 6.41645782 15.16687448 9 15 C11.37994368 13.05667668 11.37994368 13.05667668 11.25 9.5 C11.37994368 5.94332332 11.37994368 5.94332332 9 4 C7.68 4 6.36 4 5 4 Z " fill="#AC1F1D" transform="translate(194,361)"/>
<path d="M0 0 C1.32 0.33 2.64 0.66 4 1 C3.855625 1.66386719 3.71125 2.32773437 3.5625 3.01171875 C3.376875 3.89472656 3.19125 4.77773438 3 5.6875 C2.814375 6.55761719 2.62875 7.42773438 2.4375 8.32421875 C2.01027953 10.93712964 1.92383799 13.35813038 2 16 C3.32 16.33 4.64 16.66 6 17 C6.20496094 16.24074219 6.40992188 15.48148437 6.62109375 14.69921875 C6.89050781 13.70535156 7.15992188 12.71148437 7.4375 11.6875 C7.70433594 10.70136719 7.97117188 9.71523438 8.24609375 8.69921875 C8.78079425 6.78482474 9.37144538 4.88566385 10 3 C11.65 3.33 13.3 3.66 15 4 C12.37359551 17.62640449 12.37359551 17.62640449 9 21 C4.9698551 21.42508628 1.23346239 21.48135118 -2.5625 20 C-4.37454429 17.4788949 -4.54332693 15.40694005 -4.40625 12.33984375 C-3.64814098 7.97342739 -1.83992148 4.00840036 0 0 Z " fill="#A81D1C" transform="translate(150,323)"/>
<path d="M0 0 C5.15735194 1.95118288 9.92530632 4.21882239 14 8 C14.97711053 12.28425385 14.48213273 14.09359046 12.4375 17.9375 C9.9360016 20.05415249 8.45341162 20.84267582 5.1484375 20.640625 C0.26677015 19.18500056 -3.88345213 15.91805925 -8 13 C-7.67 11.68 -7.34 10.36 -7 9 C-2.46525638 9.42513221 0.4735949 11.42836381 4.1328125 13.94140625 C6.0772266 15.24659812 6.0772266 15.24659812 9 15 C9.33 13.68 9.66 12.36 10 11 C9.42765625 10.72414063 8.8553125 10.44828125 8.265625 10.1640625 C6.01035733 9.00532152 3.89143622 7.73124294 1.75 6.375 C1.04359375 5.92898438 0.3371875 5.48296875 -0.390625 5.0234375 C-0.92171875 4.68570312 -1.4528125 4.34796875 -2 4 C-1.34 2.68 -0.68 1.36 0 0 Z " fill="#AA1E1C" transform="translate(344,257)"/>
<path d="M0 0 C3.31260444 1.33432403 5.47832749 3.75301341 7.91796875 6.2734375 C8.41619141 6.7684375 8.91441406 7.2634375 9.42773438 7.7734375 C11.74815536 10.12849163 13.17138651 11.72119078 14.23046875 14.8984375 C12.58046875 15.5584375 10.93046875 16.2184375 9.23046875 16.8984375 C8.90046875 15.9084375 8.57046875 14.9184375 8.23046875 13.8984375 C4.76561168 14.51876226 4.76561168 14.51876226 1.23046875 15.8984375 C-0.28745769 18.39484878 -0.28745769 18.39484878 -0.76953125 20.8984375 C-1.75953125 20.8984375 -2.74953125 20.8984375 -3.76953125 20.8984375 C-3.76953125 14.2984375 -3.76953125 7.6984375 -3.76953125 0.8984375 C-1.76953125 -0.1015625 -1.76953125 -0.1015625 0 0 Z M0.23046875 6.8984375 C0.23046875 8.2184375 0.23046875 9.5384375 0.23046875 10.8984375 C1.22046875 10.5684375 2.21046875 10.2384375 3.23046875 9.8984375 C2.24046875 8.9084375 1.25046875 7.9184375 0.23046875 6.8984375 Z " fill="#A91E1C" transform="translate(255.76953125,323.1015625)"/>
<path d="M0 0 C2.19921875 -0.45703125 2.19921875 -0.45703125 5 0 C7.02387864 2.18748795 8.37808268 4.71336445 9.8125 7.3125 C10.21919922 8.00279297 10.62589844 8.69308594 11.04492188 9.40429688 C14 14.54464286 14 14.54464286 14 18 C11.625 18.1875 11.625 18.1875 9 18 C8.34 17.01 7.68 16.02 7 15 C3.91634129 14.7497843 3.91634129 14.7497843 1 15 C0.67 16.65 0.34 18.3 0 20 C-1.32 20 -2.64 20 -4 20 C-3.42978625 13.04339229 -1.98697306 6.68572695 0 0 Z M3 7 C2.67 8.32 2.34 9.64 2 11 C2.99 11 3.98 11 5 11 C4.34 9.68 3.68 8.36 3 7 Z " fill="#AB1F1D" transform="translate(228,359)"/>
<path d="M0 0 C1.32 0.33 2.64 0.66 4 1 C3.34 2.98 2.68 4.96 2 7 C2.639375 7.0825 3.27875 7.165 3.9375 7.25 C8.20541517 8.29520372 12.03107667 10.14091826 16 12 C15.67 13.32 15.34 14.64 15 16 C9.7415998 15.32584613 4.97361654 13.75734451 0 12 C-0.99 13.485 -0.99 13.485 -2 15 C-3.32 14.67 -4.64 14.34 -6 14 C-4.50829734 9.0276578 -2.39542583 4.58154261 0 0 Z " fill="#A81E1C" transform="translate(359,229)"/>
<path d="M0 0 C0.66 1.32 1.32 2.64 2 4 C-4.93 9.445 -4.93 9.445 -12 15 C-13.32 14.34 -14.64 13.68 -16 13 C-14.47379196 8.8410831 -11.46451578 6.75850553 -8 4.25 C-7.18015625 3.63318359 -7.18015625 3.63318359 -6.34375 3.00390625 C-2.27200997 0 -2.27200997 0 0 0 Z " fill="#A91D1B" transform="translate(74,273)"/>
<path d="M0 0 C1.65 0 3.3 0 5 0 C4.52464031 2.79236448 4.0448933 5.58384991 3.5625 8.375 C3.42779297 9.1690625 3.29308594 9.963125 3.15429688 10.78125 C2.11328125 16.7734375 2.11328125 16.7734375 1 19 C-0.32 18.67 -1.64 18.34 -3 18 C-2.57045059 11.74892565 -1.98598493 5.95795479 0 0 Z " fill="#A71D1C" transform="translate(165,358)"/>
<path d="M0 0 C1.65 0 3.3 0 5 0 C5.0272616 2.04159095 5.04651345 4.08328963 5.0625 6.125 C5.07410156 7.26195312 5.08570313 8.39890625 5.09765625 9.5703125 C5.005327 12.8129156 4.61389906 15.81932612 4 19 C2.35 19 0.7 19 -1 19 C-0.67 12.73 -0.34 6.46 0 0 Z " fill="#AC1F1D" transform="translate(199,331)"/>
<path d="M0 0 C1.65 0 3.3 0 5 0 C6.0712828 6.02596573 6.09945415 11.88909517 6 18 C4.68 18.33 3.36 18.66 2 19 C1.66440045 16.39610703 1.33143142 13.7919239 1 11.1875 C0.90460938 10.44951172 0.80921875 9.71152344 0.7109375 8.95117188 C0.33015323 5.94569605 0 3.03285559 0 0 Z " fill="#AC1F1D" transform="translate(213,361)"/>
</svg>
